<svg width="658" height="698" viewBox="0 0 658 698" fill="none" xmlns="http://www.w3.org/2000/svg">
<path d="M376.79 74.11C344.523 55.6167 309.34 42.3267 271.24 34.24C243.98 28.46 216.377 25.7934 188.43 26.24C153.26 26.8 117.96 32.8401 85.71 46.8201C74.5233 51.6667 63.5633 58.11 52.83 66.15C52.1833 66.6367 51.4399 66.8801 50.5999 66.8801C44.7699 66.9101 42.54 71.1101 43.33 76.3201C52.51 136.693 63.4666 196.397 76.2 255.43C87.6866 308.663 100.353 359.17 114.2 406.95C122.953 437.17 132.927 466.777 144.12 495.77C148.65 507.48 153.86 518.72 159.42 529.87C164.187 539.41 169.803 548.307 176.27 556.56C174.643 561.087 172.41 564.92 169.57 568.06C165.02 573.09 158 575.02 151.53 572.28C144.59 569.34 139.18 563.67 134.93 557.65C128.883 549.09 123.357 539.453 118.35 528.74C112.403 515.993 107.017 503.08 102.19 490C91.9766 462.293 82.7366 433.883 74.4699 404.77C65.3433 372.65 57.0366 340.737 49.5499 309.03C30.3766 227.79 14.1933 143.037 0.999962 54.77C0.349962 50.37 0.769952 46.01 5.48995 44.36C7.30995 43.72 9.24997 44.38 10.88 43.08C41.01 19.3 81.6699 7.08004 120.92 2.83004C177.49 -3.30996 235.86 4.91004 288.95 24.43C305.21 30.4034 321.25 37.8134 337.07 46.6601C351.397 54.6801 364.637 63.83 376.79 74.11Z" fill="#5B3634"/>
<path d="M376.79 74.1104L396.76 87.5804C402.667 92.0138 408.307 96.5938 413.68 101.32C417.28 104.5 420.43 109.29 422.82 111.91C426.947 116.464 430.137 120.277 432.39 123.35C435.71 127.87 439.703 134.31 444.37 142.67C444.857 143.537 445.263 144.41 445.59 145.29C446.42 147.56 447.73 149.49 448.52 151.83C450.127 156.63 451.613 161.194 452.98 165.52C453.86 168.3 454.24 171.14 455.1 173.98C455.76 176.14 456.29 178.344 456.69 180.59C457.217 183.544 457.767 186.46 458.34 189.34C458.893 192.147 459.04 194.994 458.78 197.88C458.14 204.99 456.07 211.46 453.64 218.62C451.153 223.714 449.527 226.927 448.76 228.26C430.55 259.85 395.53 279 361.02 288.62C360.833 288.674 360.633 288.653 360.461 288.561C360.289 288.47 360.16 288.315 360.1 288.13C358.207 282.124 355.743 276.307 352.71 270.68C350.5 265.79 348.53 260.99 346.01 256.08C341.397 247.087 337.287 237.61 333.68 227.65C332.89 225.48 333.29 223.72 334.3 221.76C337.373 215.747 340.357 209.99 343.25 204.49C344.283 202.53 345.643 200.46 347.33 198.28C348.923 196.227 350.363 194.13 351.65 191.99C355.917 184.884 360.073 178.07 364.12 171.55C365.29 169.66 366.73 168.17 367.87 166.13C370.73 161.004 372.937 156.58 374.49 152.86C376.11 148.974 377.74 143.187 379.38 135.5C380.44 130.547 380.73 125.334 380.25 119.86C380.123 118.427 379.563 117.167 378.57 116.08C376.77 114.107 374.767 112.497 372.56 111.25C365.3 107.17 357.76 104.837 349.94 104.25L343.37 103.74L328.27 102.89C315.017 102.17 302.177 102.417 289.75 103.63C275.263 105.037 260.72 108.394 246.12 113.7C238.9 116.327 232.36 118.887 226.5 121.38C220.607 123.887 216.103 127.694 212.99 132.8C210.53 136.834 209.343 140.487 209.43 143.76C209.683 153.347 212.213 163.214 217.02 173.36C221.407 182.82 225.9 191.114 230.5 198.24C231.68 200.06 233.357 202.077 235.53 204.29C235.817 204.584 235.837 204.894 235.59 205.22C234.91 206.13 234.41 207.11 234.13 208.21C232.783 213.557 231.443 219.064 230.11 224.73C229.49 227.364 229.153 230.114 229.1 232.98C229.033 236.12 228.9 239.054 228.7 241.78C228.093 250.134 228.693 259.697 230.5 270.47C230.72 271.82 230.57 273.32 231 274.55C233.04 280.417 235.117 286.074 237.23 291.52C238.3 294.29 239.86 296.81 240.91 299.52C241.697 301.554 242.643 303.44 243.75 305.18C246.51 309.514 249.4 313.654 252.42 317.6C252.461 317.653 252.49 317.715 252.504 317.781C252.517 317.847 252.515 317.915 252.498 317.981C252.48 318.046 252.448 318.108 252.403 318.16C252.359 318.211 252.303 318.253 252.24 318.28C248.74 319.81 246.28 320.4 242.13 320.61C238.617 320.777 235.267 321.427 232.08 322.56L211.99 320.25C211.47 320.19 211.24 320.42 211.3 320.94C215.2 352.107 218.113 382.687 220.04 412.68C220.36 417.667 220.857 422.367 221.53 426.78C222.97 436.21 221.82 445.77 222.14 455.12C222.713 471.96 222.27 489.184 220.81 506.79C220.25 513.49 219.773 520.31 219.38 527.25C219.307 528.624 219.07 530.027 218.67 531.46C217.303 536.36 215.947 541.164 214.6 545.87C210.8 559.09 201.6 572.9 185.89 564.52C182.04 562.47 179.29 559.42 176.27 556.56C169.803 548.307 164.187 539.41 159.42 529.87C153.86 518.72 148.65 507.48 144.12 495.77C132.927 466.777 122.953 437.17 114.2 406.95C100.353 359.17 87.6867 308.664 76.2 255.43C63.4667 196.397 52.51 136.694 43.33 76.3205C42.54 71.1105 44.7699 66.9105 50.5999 66.8805C51.4399 66.8805 52.1833 66.6371 52.83 66.1504C63.5633 58.1104 74.5233 51.6671 85.71 46.8205C117.96 32.8405 153.26 26.8004 188.43 26.2404C216.377 25.7938 243.98 28.4604 271.24 34.2404C309.34 42.3271 344.523 55.6171 376.79 74.1104ZM233.91 65.9805C230.08 70.6405 230.3 75.0005 230.44 81.0905C230.527 85.0571 230.89 88.8971 231.53 92.6104C232.99 101.09 240.18 105.35 247.91 99.8205C250.74 97.7805 253.81 96.4005 254.21 92.3705C255.16 82.6805 249.84 72.1105 243.26 65.7905C240.59 63.2205 236.35 63.0005 233.91 65.9805ZM218.7 105.56C220.03 92.7005 211.63 83.8005 202.06 76.7505C194.12 70.9005 184.63 70.6105 177.29 77.0405C175.443 78.6538 174.027 80.1671 173.04 81.5804C165.91 91.7904 173.43 100.71 180.47 108.47C184.317 112.71 188.43 115.634 192.81 117.24C195.83 118.35 198.86 119.63 202.17 118.97C209.36 117.54 217.82 114.01 218.7 105.56ZM144.78 141.53C142.647 146.117 142.35 150.14 143.89 153.6C147.66 162.09 155.18 163.66 163.9 163.83C168.687 163.924 173.643 163.204 178.77 161.67C183.963 160.11 187.873 157.25 190.5 153.09C193.39 148.5 190.42 144.04 187.97 140.17C182.88 132.13 169.94 131.52 160.69 131.78C153.8 131.98 147.7 135.26 144.78 141.53ZM179.67 181.18C175.2 182.72 171.49 184.66 171.12 189.67C170.9 192.55 173.03 195.93 174.67 198.17C175.69 199.577 177.133 200.45 179 200.79C186.5 202.14 199.85 201.8 199.76 191C199.71 185.54 193.28 181.95 188.6 180.74C185.68 179.987 182.703 180.134 179.67 181.18Z" fill="#EACDB7"/>
<path d="M230.44 81.09C230.3 75 230.08 70.64 233.91 65.98C236.35 63 240.59 63.22 243.26 65.79C249.84 72.11 255.16 82.68 254.21 92.37C253.81 96.4 250.74 97.78 247.91 99.82C240.18 105.35 232.99 101.09 231.53 92.61C230.89 88.8966 230.527 85.0566 230.44 81.09Z" fill="#FFF8E5"/>
<path d="M202.06 76.75C211.63 83.8 220.03 92.7 218.7 105.56C217.82 114.01 209.36 117.54 202.17 118.97C198.86 119.63 195.83 118.35 192.81 117.24C188.43 115.633 184.317 112.71 180.47 108.47C173.43 100.71 165.91 91.79 173.04 81.58C174.027 80.1667 175.443 78.6534 177.29 77.04C184.63 70.61 194.12 70.9 202.06 76.75Z" fill="#FFF8E5"/>
<path d="M630.46 123.22C626.967 122.12 623.353 121.014 619.62 119.9C615.853 118.774 612.18 117.784 608.6 116.93C565.967 106.79 522.963 101.704 479.59 101.67C473.67 101.664 467.72 101.827 461.74 102.16C449.13 102.87 437.63 104.34 425.85 108.02C425.55 108.12 425.497 108.294 425.69 108.54C431.723 116.494 437.433 124.71 442.82 133.19C444.28 135.484 446.197 139.454 448.57 145.1C449.223 149.46 450.637 154.227 452.81 159.4C454.19 162.667 455.24 165.644 455.96 168.33C456.767 171.337 457.643 174.384 458.59 177.47L462.25 194.28C462.357 194.754 462.647 195.057 463.12 195.19C465.89 195.95 468.02 196.81 469.94 199.07C470.88 200.184 472.657 203.247 475.27 208.26C478.323 214.134 480.02 220.38 480.36 227C480.8 235.57 481.55 242.93 479.46 249.5C473.553 268 464.35 284.76 451.85 299.78C443.64 309.64 435.8 319.25 426 327.89C420.773 332.504 414.37 335.634 406.79 337.28C402.843 338.147 398.753 337.887 394.52 336.5C389.367 334.814 384.427 332.557 379.7 329.73C387.3 327.284 393.09 324.15 397.07 320.33C407.89 309.93 415.51 300.83 426.38 286.99C437.66 272.624 446.2 256.377 452 238.25C453.667 233.05 454.213 226.507 453.64 218.62C456.07 211.46 458.14 204.99 458.78 197.88C459.04 194.994 458.893 192.147 458.34 189.34C457.767 186.46 457.217 183.544 456.69 180.59C456.29 178.344 455.76 176.14 455.1 173.98C454.24 171.14 453.86 168.3 452.98 165.52C451.613 161.194 450.127 156.63 448.52 151.83C447.73 149.49 446.42 147.56 445.59 145.29C445.263 144.41 444.857 143.537 444.37 142.67C439.703 134.31 435.71 127.87 432.39 123.35C430.137 120.277 426.947 116.464 422.82 111.91C420.43 109.29 417.28 104.5 413.68 101.32C408.307 96.5936 402.667 92.0136 396.76 87.5803C404.593 85.0403 411.923 83.377 418.75 82.5903C427.57 81.5803 437.06 80.9603 446.1 80.8403C493.033 80.2603 539.603 85.6236 585.81 96.9303C595.997 99.4303 604.553 102.087 611.48 104.9C615.547 106.547 619.877 108.237 624.47 109.97C626.19 110.617 627.55 111.57 628.55 112.83C630.643 115.49 631.28 118.954 630.46 123.22Z" fill="#5B3634"/>
<path d="M630.46 123.22C635.493 125.393 640.413 127.35 645.22 129.09C647.166 129.797 648.58 130.577 649.46 131.43C650.74 132.67 651.437 134.207 651.55 136.04C651.677 138.1 651.837 139.987 652.03 141.7C653.077 150.913 654.33 160.527 655.79 170.54C656.103 172.693 656.536 174.807 657.09 176.88C657.836 179.687 657.893 182.627 657.26 185.7C656.85 187.71 656.79 189.98 656.62 192C655.96 200.013 655.297 207.86 654.63 215.54C654.03 222.5 653.4 229.137 652.74 235.45C644.033 318.91 630.037 400.95 610.75 481.57C602.95 514.157 593.89 546.307 583.57 578.02C576.836 598.7 569.497 617.53 561.55 634.51C556.123 646.097 549.963 656.753 543.07 666.48C540.003 670.793 536.393 674.703 532.24 678.21C526.953 682.677 520.973 684.517 514.3 683.73C502.26 679.87 496.86 667.73 493.5 655.91C490.607 645.743 488.6 635.047 487.48 623.82C483.85 587.42 484.04 551.73 486.03 514.22C487.737 482.093 490.833 447.943 495.32 411.77C495.366 411.41 495.207 411.23 494.84 411.23L468.43 411.1C454.817 410.427 441.483 409.2 428.43 407.42C405.383 403.813 382.563 397.853 359.97 389.54C333.063 379.647 309.37 366.583 288.89 350.35C277.65 341.437 268.35 332.403 260.99 323.25C258.97 320.743 256.977 318.303 255.01 315.93C252.8 313.27 250.6 309.66 249.05 306.66C247.417 303.513 245.75 300.353 244.05 297.18C239.29 288.32 235.61 277.88 234.05 268.92C233.383 265.087 232.827 259.287 232.38 251.52C232.02 245.43 232.45 239.48 233.59 233.76C234.557 228.96 235.783 223.97 237.27 218.79C238.81 213.443 240.617 208.73 242.69 204.65C261.02 168.57 297.49 144.2 334.25 130.7C336.477 129.88 338.61 129.07 340.65 128.27L346.2 126.41L372.95 119.33C373.297 119.243 373.533 119.367 373.66 119.7C374.63 122.24 374.47 126.69 374.67 129.73C374.863 132.623 374.597 135.487 373.87 138.32C372.03 145.513 369.91 151.66 367.51 156.76C361.83 168.88 355.03 179.57 347.93 190.29C345.863 193.41 343.566 195.657 341.04 197.03C335.28 200.17 330.27 203.21 325.85 208.35C324.68 209.7 323.94 210.97 324.57 212.83C326.99 219.97 329.33 226.103 331.59 231.23C334.3 237.36 336.71 243.47 339.51 249.61C342.93 257.137 346.273 264.69 349.54 272.27C352.193 279.537 354.757 286.833 357.23 294.16C359.423 300.647 361.517 305.677 363.51 309.25C366.657 314.903 370.35 320.207 374.59 325.16C376.15 326.98 377.853 328.503 379.7 329.73C384.427 332.557 389.367 334.813 394.52 336.5C398.753 337.887 402.843 338.147 406.79 337.28C414.37 335.633 420.773 332.503 426 327.89C435.8 319.25 443.64 309.64 451.85 299.78C464.35 284.76 473.553 268 479.46 249.5C481.55 242.93 480.8 235.57 480.36 227C480.02 220.38 478.323 214.133 475.27 208.26C472.657 203.247 470.88 200.183 469.94 199.07C468.02 196.81 465.89 195.95 463.12 195.19C462.647 195.057 462.357 194.753 462.25 194.28L458.59 177.47C463.21 176.337 466.47 173.573 468.37 169.18C471.217 162.593 473.36 155.723 474.8 148.57C475.773 143.723 475.183 139.417 473.03 135.65C470.06 130.45 464.76 131.11 460.62 134.14C456.473 137.167 452.457 140.82 448.57 145.1C446.197 139.453 444.28 135.483 442.82 133.19C437.433 124.71 431.723 116.493 425.69 108.54C425.497 108.293 425.55 108.12 425.85 108.02C437.63 104.34 449.13 102.87 461.74 102.16C467.72 101.827 473.67 101.663 479.59 101.67C522.963 101.703 565.966 106.79 608.6 116.93C612.18 117.783 615.853 118.773 619.62 119.9C623.353 121.013 626.966 122.12 630.46 123.22ZM482.75 178.8C480.02 185.41 479.35 193.16 484.6 198.52C487.66 201.647 491.433 204.31 495.92 206.51C498.5 207.78 501.44 208 504.3 207.78C511.887 207.2 518.59 204.833 524.41 200.68C528.423 197.82 532.137 194.893 535.55 191.9C541.59 186.62 543.717 180.173 541.93 172.56C541.643 171.34 541.19 170.233 540.57 169.24C538.84 166.47 537.52 163.61 535.16 161.34C527.26 153.72 518.01 152.327 507.41 157.16C496.97 161.92 487.22 167.94 482.75 178.8ZM559.32 254.59C559.24 243.97 553.3 235.61 542.81 233.04C533.41 230.73 519.46 227.7 510.72 233.38C509.233 234.34 507.653 235.743 505.98 237.59C502.85 241.05 500.3 244.29 501.17 248.41C502.337 253.87 505.31 258.23 510.09 261.49C517.75 266.717 526.583 269.88 536.59 270.98C540.63 271.427 544.067 271.183 546.9 270.25C553.55 268.05 559.38 262.03 559.32 254.59ZM480.94 291.66C479.3 297.307 481.123 301.45 486.41 304.09C492.036 306.897 497.44 308.403 502.62 308.61C507.207 308.797 510.85 307.18 513.55 303.76C518.41 297.6 515.1 292.01 509.82 288.09C502.193 282.437 494.056 281.913 485.41 286.52C483.063 287.773 481.573 289.487 480.94 291.66Z" fill="#EACDB7"/>
<path d="M328.27 102.89L343.37 103.74C344.043 110.293 344.163 114.463 343.73 116.25C342.777 120.176 341.75 124.183 340.65 128.27C338.61 129.07 336.477 129.88 334.25 130.7C297.49 144.2 261.02 168.57 242.69 204.65C240.617 208.73 238.81 213.443 237.27 218.79C235.783 223.97 234.557 228.96 233.59 233.76C232.45 239.48 232.02 245.43 232.38 251.52C232.827 259.286 233.383 265.086 234.05 268.92C235.61 277.88 239.29 288.32 244.05 297.18C245.75 300.353 247.417 303.513 249.05 306.66C250.6 309.66 252.8 313.27 255.01 315.93C256.977 318.303 258.97 320.743 260.99 323.25C268.35 332.403 277.65 341.436 288.89 350.35C309.37 366.583 333.063 379.646 359.97 389.54C382.563 397.853 405.383 403.813 428.43 407.42C424.89 407.3 419.417 406.813 412.01 405.96C360.46 399.99 308.37 382.58 265.86 352.4C253.773 343.82 242.513 333.873 232.08 322.56C235.267 321.426 238.617 320.776 242.13 320.61C246.28 320.4 248.74 319.81 252.24 318.28C252.303 318.252 252.359 318.211 252.403 318.159C252.448 318.107 252.48 318.046 252.498 317.98C252.515 317.914 252.517 317.846 252.504 317.78C252.49 317.714 252.462 317.652 252.42 317.6C249.4 313.653 246.51 309.513 243.75 305.18C242.643 303.44 241.697 301.553 240.91 299.52C239.86 296.81 238.3 294.29 237.23 291.52C235.117 286.073 233.04 280.416 231 274.55C230.57 273.32 230.72 271.82 230.5 270.47C228.693 259.696 228.093 250.133 228.7 241.78C228.9 239.053 229.033 236.12 229.1 232.98C229.153 230.113 229.49 227.363 230.11 224.73C231.443 219.063 232.783 213.556 234.13 208.21C234.41 207.11 234.91 206.13 235.59 205.22C235.837 204.893 235.817 204.583 235.53 204.29C233.357 202.076 231.68 200.06 230.5 198.24C225.9 191.113 221.407 182.82 217.02 173.36C224.607 162.693 233.467 153.19 243.6 144.85C253.247 136.916 263.573 129.993 274.58 124.08C288.08 116.833 302.153 110.953 316.8 106.44C320.287 105.366 324.11 104.183 328.27 102.89Z" fill="#5B3634"/>
<path d="M349.94 104.25C357.76 104.837 365.3 107.17 372.56 111.25C374.767 112.497 376.77 114.107 378.57 116.08C379.563 117.167 380.123 118.427 380.25 119.86C380.73 125.333 380.44 130.547 379.38 135.5C377.74 143.187 376.11 148.973 374.49 152.86C372.937 156.58 370.73 161.003 367.87 166.13C366.73 168.17 365.29 169.66 364.12 171.55C360.073 178.07 355.917 184.883 351.65 191.99C350.363 194.13 348.923 196.227 347.33 198.28C345.643 200.46 344.283 202.53 343.25 204.49C340.357 209.99 337.373 215.747 334.3 221.76C333.29 223.72 332.89 225.48 333.68 227.65C337.287 237.61 341.397 247.087 346.01 256.08C348.53 260.99 350.5 265.79 352.71 270.68C351.617 270.767 350.56 271.297 349.54 272.27C346.273 264.69 342.93 257.137 339.51 249.61C336.71 243.47 334.3 237.36 331.59 231.23C329.33 226.103 326.99 219.97 324.57 212.83C323.94 210.97 324.68 209.7 325.85 208.35C330.27 203.21 335.28 200.17 341.04 197.03C343.567 195.657 345.863 193.41 347.93 190.29C355.03 179.57 361.83 168.88 367.51 156.76C369.91 151.66 372.03 145.513 373.87 138.32C374.597 135.487 374.863 132.623 374.67 129.73C374.47 126.69 374.63 122.24 373.66 119.7C373.533 119.367 373.297 119.243 372.95 119.33L346.2 126.41C348.58 119.103 349.827 111.717 349.94 104.25Z" fill="#5B3634"/>
<path d="M144.78 141.53C147.7 135.26 153.8 131.98 160.69 131.78C169.94 131.52 182.88 132.13 187.97 140.17C190.42 144.04 193.39 148.5 190.5 153.09C187.873 157.25 183.963 160.11 178.77 161.67C173.643 163.203 168.687 163.923 163.9 163.83C155.18 163.66 147.66 162.09 143.89 153.6C142.35 150.14 142.647 146.117 144.78 141.53Z" fill="#FFF8E5"/>
<path d="M458.59 177.47C457.643 174.384 456.767 171.337 455.96 168.33C455.24 165.644 454.19 162.667 452.81 159.4C450.637 154.227 449.223 149.46 448.57 145.1C452.457 140.82 456.473 137.167 460.62 134.14C464.76 131.11 470.06 130.45 473.03 135.65C475.183 139.417 475.773 143.724 474.8 148.57C473.36 155.724 471.217 162.594 468.37 169.18C466.47 173.574 463.21 176.337 458.59 177.47Z" fill="#FFF8E5"/>
<path d="M482.75 178.8C487.22 167.94 496.97 161.92 507.41 157.16C518.01 152.326 527.26 153.72 535.16 161.34C537.52 163.61 538.84 166.47 540.57 169.24C541.19 170.233 541.643 171.34 541.93 172.56C543.717 180.173 541.59 186.62 535.55 191.9C532.137 194.893 528.423 197.82 524.41 200.68C518.59 204.833 511.887 207.2 504.3 207.78C501.44 208 498.5 207.78 495.92 206.51C491.433 204.31 487.66 201.646 484.6 198.52C479.35 193.16 480.02 185.41 482.75 178.8Z" fill="#FFF8E5"/>
<path d="M179.67 181.181C182.703 180.134 185.68 179.987 188.6 180.741C193.28 181.951 199.71 185.541 199.76 191.001C199.85 201.801 186.5 202.14 179 200.79C177.133 200.45 175.69 199.577 174.67 198.17C173.03 195.93 170.9 192.55 171.12 189.67C171.49 184.66 175.2 182.721 179.67 181.181Z" fill="#FFF8E5"/>
<path d="M542.81 233.04C553.3 235.61 559.24 243.97 559.32 254.59C559.38 262.03 553.55 268.05 546.9 270.25C544.067 271.183 540.63 271.427 536.59 270.98C526.583 269.88 517.75 266.717 510.09 261.49C505.31 258.23 502.337 253.87 501.17 248.41C500.3 244.29 502.85 241.05 505.98 237.59C507.653 235.743 509.233 234.34 510.72 233.38C519.46 227.7 533.41 230.73 542.81 233.04Z" fill="#FFF8E5"/>
<path d="M480.94 291.66C481.573 289.487 483.063 287.774 485.41 286.521C494.057 281.914 502.193 282.437 509.82 288.091C515.1 292.011 518.41 297.6 513.55 303.76C510.85 307.18 507.207 308.797 502.62 308.61C497.44 308.404 492.037 306.897 486.41 304.091C481.123 301.451 479.3 297.307 480.94 291.66Z" fill="#FFF8E5"/>
<path d="M514.3 683.73C510.973 687.85 507.507 691.076 503.9 693.41C491.43 701.46 480.24 696 473.53 684.21C470.81 679.436 468.66 674.22 467.08 668.56C463.48 655.653 461.09 641.75 459.91 626.85C457.797 600.19 457.153 573.06 457.98 545.46C458.26 536.166 458.633 527.266 459.1 518.76C461.047 482.946 464.157 447.06 468.43 411.1L494.84 411.23C495.207 411.23 495.367 411.41 495.32 411.77C490.833 447.943 487.737 482.093 486.03 514.22C484.04 551.73 483.85 587.42 487.48 623.82C488.6 635.046 490.607 645.743 493.5 655.91C496.86 667.73 502.26 679.87 514.3 683.73Z" fill="#5B3634"/>
</svg>
